/* XPM */
static char * bot3_xpm[] = {
"33 33 24 1",
" 	c None",
".	c #383626",
"+	c #78611F",
"@	c #C39F38",
"#	c #EBCF38",
"$	c #000000",
"%	c #732612",
"&	c #A83D3B",
"*	c #47120D",
"=	c #FFE885",
"-	c #242222",
";	c #383636",
">	c #0D1C6F",
",	c #1649A5",
"'	c #578AD9",
")	c #303430",
"!	c #7C8383",
"~	c #82C3FB",
"{	c #A3ABAF",
"]	c #DBE6EB",
"^	c #78523D",
"/	c #4F3300",
"(	c #1F3069",
"_	c #C2A678",
"                                 ",
"                  .....          ",
"                ..++@@+..        ",
"              ..++@@##@@+.       ",
"            ..++@@######@+.      ",
"           .++@@##@@+.##@@+.     ",
"          .+@@######@+.$#.+.     ",
"         .+@#########@+.$ ..     ",
"        $+@###########@+$        ",
"        .++@@+++++++@@++.        ",
"       .++%%%%&&&&&%%%%++.       ",
"       *%%***+++++++***%%*       ",
"      .**++@##=====##@++**.      ",
"     .+@####=========####@+.     ",
"   .+@###@++...........+###@+.   ",
"  .@##@+...$$$$$$$$$$$....@##@.  ",
" .@#@+$$.$$-;;-----;;-$$.$$.@#@. ",
" .+.$$$$$--;@#;;;;;#@;--$$$$$.+. ",
" $......$-;;@#;;;;;#@;;-$......$ ",
"  $$....$--;@#-;;;-#@;--$....$$  ",
"    $$...$>>>>--;-->>>>$...$$    ",
"      $$$$>,',>>->>,',>$$$$      ",
"     )!>>,''~~~,>,~~~','>>       ",
"    $){!,'>,~~~~,'~~',>,'~>)     ",
"    $%){!> $'~',>,~',> >,>{])    ",
"     $$))  $,''>]>~',>  >!)))    ",
"           $,',>^/>~',>  )%&$    ",
"           (,'>/^//(',>   $$     ",
"           $>,$)!{!)(,>          ",
"            $($!{]{!($           ",
"               $///$             ",
"               $^_^$             ",
"                                 "};
