/* XPM */
static char * left3_xpm[] = {
"32 32 23 1",
"  	c #000000",
".	c #383626",
"+	c #78611F",
"@	c #C39F38",
"#	c #000000",
"$	c #EBCF38",
"%	c #47120D",
"&	c #732612",
"*	c #A83D3B",
"=	c #FFE885",
"-	c #242222",
";	c #383636",
">	c #0D1C6F",
",	c #1649A5",
"'	c #578AD9",
")	c #82C3FB",
"!	c #DBE6EB",
"~	c #303430",
"{	c #A3ABAF",
"]	c #7C8383",
"^	c #78523D",
"/	c #4F3300",
"(	c #C2A678",
"                                ",
"                .++.            ",
"              ..+@@+..          ",
"           #.++@@@@@@+..        ",
"         #.+@@@@$$$$$@@@.       ",
"        .+@@@@@$$$$$$$$$@.      ",
"       .++@@@@@@$$$$$$$$$+.     ",
"      .%+++@@@@@@@@@@$$$$@+.    ",
"    ++%&&*+++@@@@@@@+.+@@@@+.   ",
"#+++@@++%&*+++@@@@@@@+.+++@++.  ",
"...+$$$$$+%&**+++@@@@+#.+++++.  ",
"...##.@$===$++&&%+++...##.++++. ",
"#....###.@$==$@++%%%%%%%%##..+. ",
" #....#-#...+$==$@++.%%%...# .# ",
"   #..#--####..+@$=$@+...... ## ",
"     ###--;;-##..++@@@@@@+++.   ",
"       #-;;$@;-##...+@@@@@++.   ",
"       #-;;$@;;;-###....++.#    ",
"       #-;;$@;;>>>>>#######     ",
"       #-;;>>>>,'',,>           ",
"       #-->,',,',,,,>           ",
"        #>,',)',,##>            ",
"         >)'>))'>',#            ",
"         >,>!>''#'',#~          ",
"          >{]>,),#,!]]~         ",
"          >!^>,)'>#]!~~         ",
"         >>/^/>,),>~~*#         ",
"         >!{!!>,)',>##          ",
"        >~]!!]~>,',>            ",
"       #^//]]~~>,,>/#           ",
"       #(^^//   >>^/#           ",
"        ####     #(#            "};
