/* XPM */
static char * top1_xpm[] = {
"33 32 19 1",
" 	c None",
".	c #383626",
"+	c #78611F",
"@	c #000000",
"#	c #C39F38",
"$	c #EBCF38",
"%	c #47120D",
"&	c #A83D3B",
"*	c #732612",
"=	c #303430",
"-	c #7C8383",
";	c #0D1C6F",
">	c #1649A5",
",	c #578AD9",
"'	c #A3ABAF",
")	c #82C3FB",
"!	c #DBE6EB",
"~	c #4F3300",
"{	c #78523D",
"                                 ",
"               ...               ",
"             ..+++..             ",
"            @++###++@            ",
"          @..#######..@          ",
"         @.+##$$$$$##+.@         ",
"        @.+##$$$$$$$##+.@        ",
"        @+###$$$$$$$###+@        ",
"       @.#+++#$$$$$#+++#.@       ",
"       .++++++#$$$#++++++.       ",
"       %%..++++$$$++++..%%       ",
"      .%&%.++++#$#++++.%&%.      ",
"     .+%&*..++++#++++..*&%+.     ",
"   .+++%%**.++++#++++.**%%+++.   ",
"  .+####+%%%.+++++++.%%%+####+.  ",
" .+########+.+++++++.+########+. ",
" .+#####$$$#+.+++++.+#$$$#####+. ",
"  ..+##$$$$$$.+++++.$$$$$$##+..  ",
"    ...#$$$$$#.+++.#$$$$$#...    ",
"       ...#$$$#.+.#$$$#...       ",
"        @@.............@@        ",
"     =-;;>,>;;;>>>;;;>;,;;       ",
"    @='->,;>>,,>>>,,>;@>,);=     ",
"    @*='-; @,,,,,,,,,@ ;>;'!=    ",
"     @@==  @>,,,>,,,>@  ;-===    ",
"           @>,,),),,>@   =*&@    ",
"           ;>,,),),,>;    @@     ",
"          ;>),),,,),>;           ",
"          ;>,,>>>>,>;;           ",
"          ;>,;;;;;>;             ",
"           ;;@~~~@;              ",
"             @{{{@               "};
