/* XPM */
static char * wall_side_xpm[] = {
"24 31 222 2",
"  	c None",
". 	c #FFFFFF",
"+ 	c #EBEBED",
"@ 	c #D9D9DD",
"# 	c #8B6B44",
"$ 	c #6D6970",
"% 	c #86838C",
"& 	c #534F54",
"* 	c #000000",
"= 	c #5E5A60",
"- 	c #A09EA8",
"; 	c #9C8454",
"> 	c #D4B980",
", 	c #B5A270",
"' 	c #BD6934",
") 	c #292627",
"! 	c #323234",
"~ 	c #524031",
"{ 	c #6C4C27",
"] 	c #59251F",
"^ 	c #444444",
"/ 	c #913500",
"( 	c #B9B9B9",
"_ 	c #745B46",
": 	c #634E3B",
"< 	c #44402E",
"[ 	c #917357",
"} 	c #FF0000",
"| 	c #6B6341",
"1 	c #463216",
"2 	c #5F583A",
"3 	c #B9B8C4",
"4 	c #9B8F5E",
"5 	c #7D734C",
"6 	c #AFAFAF",
"7 	c #CBCBCB",
"8 	c #433F40",
"9 	c #96BC20",
"0 	c #B7AA91",
"a 	c #422926",
"b 	c #C2A86B",
"c 	c #E0D2C6",
"d 	c #383425",
"e 	c #8B784E",
"f 	c #C8C7D0",
"g 	c #6A0000",
"h 	c #A7A7A7",
"i 	c #7C200E",
"j 	c #564646",
"k 	c #554F3A",
"l 	c #90B41F",
"m 	c #B19D6A",
"n 	c #75580A",
"o 	c #6E574F",
"p 	c #AA9664",
"q 	c #909090",
"r 	c #CA9911",
"s 	c #15323D",
"t 	c #AD0000",
"u 	c #96710D",
"v 	c #433636",
"w 	c #4D8C51",
"x 	c #ABD03C",
"y 	c #D2BFB3",
"z 	c #3A773C",
"A 	c #7F726E",
"B 	c #CA6D35",
"C 	c #830002",
"D 	c #8E8128",
"E 	c #876B51",
"F 	c #B5A630",
"G 	c #AD8100",
"H 	c #3A443D",
"I 	c #5484AA",
"J 	c #A64E19",
"K 	c #54A556",
"L 	c #D2AC78",
"M 	c #98552A",
"N 	c #E7AE13",
"O 	c #709A04",
"P 	c #EECD79",
"Q 	c #6E14AF",
"R 	c #6F3900",
"S 	c #3B3B36",
"T 	c #4F653D",
"U 	c #7D755F",
"V 	c #583C3C",
"W 	c #56BA51",
"X 	c #9B8E7F",
"Y 	c #D10000",
"Z 	c #796959",
"` 	c #8C1E10",
" .	c #465E47",
"..	c #F8D781",
"+.	c #2B2B28",
"@.	c #658B04",
"#.	c #FFF1AA",
"$.	c #3A6081",
"%.	c #B03DFF",
"&.	c #948581",
"*.	c #C5BA9E",
"=.	c #A0927A",
"-.	c #4E4E46",
";.	c #405B74",
">.	c #D8C159",
",.	c #AA4945",
"'.	c #7E644B",
").	c #7FBAD8",
"!.	c #2F495E",
"~.	c #88AB1D",
"{.	c #986928",
"].	c #772525",
"^.	c #466A53",
"/.	c #2D503B",
"(.	c #FFC421",
"_.	c #63534D",
":.	c #AA3834",
"<.	c #C5E0ED",
"[.	c #A80C02",
"}.	c #A57D0E",
"|.	c #6BADB7",
"1.	c #C4924D",
"2.	c #5C4D00",
"3.	c #66432E",
"4.	c #CE0203",
"5.	c #FFEC00",
"6.	c #604D4C",
"7.	c #AC941D",
"8.	c #4D7F25",
"9.	c #9D725C",
"0.	c #294936",
"a.	c #7AA904",
"b.	c #FC5556",
"c.	c #B2D83C",
"d.	c #A2CDE2",
"e.	c #745436",
"f.	c #D1BE87",
"g.	c #FFBC00",
"h.	c #C060FF",
"i.	c #A8978E",
"j.	c #FFD500",
"k.	c #FFF4C0",
"l.	c #8D8C92",
"m.	c #606158",
"n.	c #784838",
"o.	c #42423C",
"p.	c #FFEDB4",
"q.	c #800703",
"r.	c #7F8B98",
"s.	c #5C8169",
"t.	c #262626",
"u.	c #FF7E80",
"v.	c #AE9774",
"w.	c #FBE1B6",
"x.	c #89646A",
"y.	c #B72D2D",
"z.	c #E6CB3C",
"A.	c #FFFC00",
"B.	c #509C00",
"C.	c #CF5955",
"D.	c #B7E03C",
"E.	c #0B1B21",
"F.	c #FFEC45",
"G.	c #313233",
"H.	c #79D951",
"I.	c #967A55",
"J.	c #E2C47C",
"K.	c #8C9C55",
"L.	c #D7C982",
"M.	c #D0AF59",
"N.	c #3E617C",
"O.	c #706A4B",
"P.	c #C1AFA4",
"Q.	c #6C9304",
"R.	c #EEC10F",
"S.	c #FFFFD4",
"T.	c #2D3E35",
"U.	c #1F4959",
"V.	c #922ADB",
"W.	c #FFDF8E",
"X.	c #98AA5C",
"Y.	c #CA8B35",
"Z.	c #56A4A1",
"`.	c #FEE708",
" +	c #717167",
".+	c #CB7EFF",
"++	c #3F3687",
"@+	c #374C45",
"#+	c #9F757D",
"$+	c #87CB00",
"%+	c #837C5E",
"&+	c #476881",
"*+	c #C3F03B",
"=+	c #FFBBBD",
"-+	c #FF8C00",
";+	c #0079E3",
">+	c #1010FF",
",+	c #C1A415",
"'+	c #A16F0C",
")+	c #2F3F37",
"!+	c #607CB1",
"~+	c #61B1B5",
"{+	c #745DC4",
"]+	c #8A76D2",
"^+	c #C5FF00",
"/+	c #B25D28",
"(+	c #8AAEBF",
"_+	c #819050",
":+	c #6B6B6B",
"<+	c #889AE1",
"[+	c #FF9FFF",
"}+	c #5BE1FF",
"|+	c #0844F1",
"1+	c #190891",
"2+	c #D598FF",
"3+	c #5D41B6",
"4+	c #FF60FF",
"5+	c #00A1FF",
"6+	c #FF7E00",
"7+	c #546561",
"8+	c #E9CAFF",
"9+	c #000000",
"s $.I $.).).I $.s $.I I $.$.s $.s $.I $.).).I $.",
"s <.<.d.d.).$.s $.).).I $.s $.$.s <.<.d.d.).$.s ",
"$.I <.<.d.I s s ).d.d.$.I ).).).$.I <.<.d.I s s ",
").I I I $.s s s $.d.$.s <.<.d.).).I I I $.s s s ",
"s $.I I s s s $.I I s s $.<.<.d.s $.I I s s s $.",
"s $.$.I s s I ).).I s s $.I s s s $.$.I s s I ).",
"$.I $.$.s I ).).d.).$.s $.I s s $.I $.$.s I ).).",
").).$.s s <.<.<.d.$.s s $.I s $.).).$.s s <.<.<.",
"<.d.I s s I <.d.$.s s s $.I ).d.<.d.I s s I <.d.",
"d.$.s s s $.I I s s s s $.$.<.<.d.$.s s s $.I I ",
"$.s s s s $.I I s s s s $.$.d.I $.s s s s $.I I ",
"s s s ).).$.I $.).).s s s $.I I s s s ).).$.I $.",
"s s ).).s $.$.d.d.).$.I $.s I I s s ).).s $.$.d.",
"s s I $.s $.d.<.).$.I ).).).I I s s I $.s $.d.<.",
"s s I $.s $.I I $.s ).d.d.).).I s s I $.s $.I I ",
"s s $.$.s $.I I s s I <.<.d.$.I s s $.$.s $.I I ",
"s $.I $.).).I $.s $.I I $.$.s $.s $.I $.).).I $.",
"s <.<.d.d.).$.s $.).).I $.s $.$.s <.<.d.d.).$.s ",
"$.I <.<.d.I s s ).d.d.$.I ).).).$.I <.<.d.I s s ",
").I I I $.s s s $.d.$.s <.<.d.).).I I I $.s s s ",
"s $.I I s s s $.I I s s $.<.<.d.s $.I I s s s $.",
"s $.$.I s s I ).).I s s $.I s s s $.$.I s s I ).",
"$.I $.$.s I ).).d.).$.s $.I s s $.I $.$.s I ).).",
").).$.s s <.<.<.d.$.s s $.I s $.).).$.s s <.<.<.",
"<.d.I s s I <.d.$.s s s $.I ).d.<.d.I s s I <.d.",
"d.$.s s s $.I I s s s s $.$.<.<.d.$.s s s $.I I ",
"$.s s s s $.I I s s s s s $.d.I $.s s s s $.I I ",
"s s s s s $.I I s s s s s $.I I s s s s s $.I I ",
"s s s s s $.$.I s s s   s s I I s s s s s $.$.I ",
"s s s s     $.$.s s       s $.I s s s s     $.$.",
"s s                           $.s s             "};
