/* XPM */
static char * cata_west_xpm[] = {
"94 63 11 1",
" 	c #3C3129",
".	c #454135",
"+	c #2E2A25",
"@	c #23201D",
"#	c #555145",
"$	c #1B1916",
"%	c #140E0E",
"&	c #1A1512",
"*	c #231F19",
"=	c #3F3628",
"-	c #2B2821",
" .+++.@@                   @@       @              @@                     @@        @@.++     ",
" .+++.@..##...##########...@########@##..##########@######..###......######@#######..@.+++    ",
" .+++.@.+++++++++++++++++++$++++++++$++++++++++++++$+++++++++++++++++++++++$++++++++.@. ++    ",
" .....@.+++++++++++++++++++$++++++++$+++@++++++++++$+++++++++++++++++++++++$++++++++.@...#####",
" +++++@#++++++@@@@++++@++++$++++++@@$+++@++++++++++$@@@@@++@+++@@+++@@+++++$++++++++.@++++++++",
"       #@@@@@@@@@@@@@@@@@@@$@@@@@@@@$@@@@@@@@@@@@@@$@@@@@@@@@@@@@@@@@@@@@@@$@@@@@@@@#         ",
"########$$$$$$$$$$$$$$$$$$$$$$$$$$$$$$$$$$$$$$$$$$$$$$$$$$$$$$$$$$$$$$$$$$$$$$$$$$$$#####.....",
"++++++@%%%%%%%%%%%%%%%%%%%%%&&%%%%%%%%&&%%%%&&&&%&&&&&&&%%%%&&&%&&&&%&&&%%%%&&%%%%%%@@++++++++",
"      @%%%%&&&&%%%&&&&&&&%&&&&&&&&%&&&&&&%&&&&&&%%&&&*&&&%&&&&&%&&&%%*&&&%&&&&&&&%%%@@        ",
"      @@%%%&&&&*%%%&&&**%%&&&&&**%%&&&**%%&&&&**&%%&&&**%%&&&&&%%%%%&&**%%&&&&&&&%%%@@        ",
"     +@@%*%%&&**%%%%%&&&==&&*&&&%%%%%&&&==%%%&&&%%%%%&&&==&&*&&&%%%%%&&&==&&*&&%%%*%@@        ",
"     ++@%**&&&&--&%%&--===-&&&&--&%%&--===-%%&%--&%%&--===-&&&&--&%%&--===-&&&&%&**%%@        ",
"     ++@%****&*--===%%----=--&*--===%%----=--&*--===%%----=--&*--===%%----=--&%****%%@        ",
"     +@@%%**&&&*--==%%&**---&&&*--==%%&**---&&&*--==%%&**---&&&*--==%%&**---&&%%**%%%@        ",
"      @@%%%%%%%%**---%%&&&&%%%%%**---%%&&&&%%%%%**---%%&&&&%%%%%**---%%&&&&%%%%%%%&%%@        ",
"      @@%%%%&===%%-*%%%-==&%&===%%-*%%%-==&%&===%%-*%%%-==&%&===%%-*%%%-==&%&==&%&&&%@+       ",
"      +@%%%&----=&%%==%%-==&----=&%%==%%-==&----=&%%==%%-==&----=&%%==%%-==&----&&&%@@+       ",
"      +@%%%&-----%-=---%---&-----%-=---%---&-----%-=---%---&-----%-=---%---&----&%%%@@+       ",
"      +@%%%%&--&%**--*&&&**&&--&%**--*&&&**&&--&%**--*&&&**&&--&%**--*&&&**&&--&%%%%@@++      ",
"      +@%%%**&&==&**&&--&%%%&&&==&**&&--&%%%&&&==&**&&--&%%%&&&==&**&&--&%%%&&&**%&%@@++      ",
"     ++@%%*--&--==&&&---%%==-&--==&&&---%%==-&--==&&&---%%==-&--==&&&---%%==-&&--&&%@@++      ",
"++++++@@%%**-*&---*&***&*-----&---*&***&*-----&---*&***&*-----&---*&***&*-----*-*&%%@@++++++++",
"@@@@%%%%%%***&&&-**&&%%%&**--&&&-**&&%%%&**--&&&-**&&%%%&**--&&&-**&&%%%&**--&&**&%%%%%%%@@@@@",
"###...@%%%%%&&--&&&&==--%%%%&&--&&&&==--%%%%&&--&&&&==--%%%%&&--&&&&==--%%%%&&&&%%%%@@.@@@@@..",
"      @@%%&==----&-==----%&==----&-==----%&==----&-==----%&==----&-==----%&==--&&&%%@@ .....  ",
"      @@%%-----*&%%---**%%-----*&%%---**%%-----*&%%---**%%-----*&%%---**%%------&&%%@@        ",
"      @@%*&&*-&&%%%%%&**--&&*-&&%%%%%&&&==&&*-&&%%%%%&*==-%&*-&&%%%%%%&&==&&*--*&&*%@@        ",
"      @@%**&&&&--&%%&--===-&&&&--%%%---===-&&&&--&%%&---==%&&&&--%%%-%%===-&&&&&&**%@+++      ",
"      @@%%***&*--===%&--===--&*--=&---=---=--&*--===%&---%%--&*--=&---%%--=--&&***%%@@++      ",
"      +@%%%*&&&*--==%&&---=-&&&*--&-----*---&&&*--==%&&-%%=-&&&*--&----%*---&&&&*%%%@+++      ",
"      +@%%%%%%%%**---%**----%%%%**%&---&&&&%%%%%**---%%%%=--%%%%**%&---%&&&%%%%%%%%%@++       ",
"      +@%*&%&===%%-*%%&**--%&===%%%&&&%-==&%&===%%-*%%%%*=-%&===%%%&&&%-==&%&==&%&*%@@        ",
"      +@%**&----=&%%==%&*--&----=&%%==%%-==&----=&%%==%&*--&----=&%%==%%-==&----&**%@@        ",
"  +   @@%%*&-----%-=---&***&-----%-=---%---&-----%-=---&***&-----%-=---%---&----&*%%@@        ",
"  ++  @@%%%&&--&%**--*&&&**&&--&%**--*&&&**&&--&%**--*&&&**&&--&%**--*&&&**&&--&&%%%@@        ",
"  ++  @@%%%%&&&==&**&&--&%%%&&&==&**&&--&%%%&&&==&**&&--&%%%&&&==&**&&--&%%%&&&&%%%%@@        ",
"++    @@%%**-&--==&&&---%%==-&--==&&&---%%==-&--==&&&---%%==-&--==&&&---%%==-&&-**%%@@ +++++++",
"++++++@@%%----&---*&***&*-----&---*&***&*-----&---*&***&*-----&---*&***&*---------%%%%%@@+++++",
"@@@@%%%%%%%--&&&-**&&%%%&**--&&&-**&&%%%&**--&&&-**&&%%%&**--&&&-**&&%%%&**--&&--%%%%%%%@@@@@@",
"##....@%%%%%&&--&&&&==--%%%%&&--&&&&==--%%%%&&--&&&&==--%%%%&&--&&&&==--%%%%&&&&%%%%%@........",
"      @%%%&==----&-==----%&==----&-==----%&==----&-==----%&==----&-==----%&==--**&%%@@        ",
"      @%%%-----*&%%---**%%-----*&%%---**%%-----*&%%---**%%-----*&%%---**%%------*%%%@@        ",
"      @%%*&&*-&&%%%%%&&&==&&*-&&%%%%%&&&==&&*-&&%%%%%&&&==&&*-&&%%%%%&&&==&&*--*&&*%@@        ",
"      @@%**&&&&--&%%&--===-&&&&--&%%&--===-&&&&--&%%&--===-&&&&--&%%&--===-&&&&&&**%@+        ",
"     +@@%%***&*--===%%----=--&*--===%%----=--&*--===%%----=--&*--===%%----=--&&***%%@++       ",
"    +++@%%**&&&*--==%%&**---&&&*--==%%&**---&&&*--==%%&**---&&&*--==%%&**---&&&&**%%@++       ",
"    +++@%%%%%%%%**---%%&&&&%%%%%**---%%&&&&%%%%%**---%%&&&&%%%%%**---%%&&&&%%%%%%%%%@++   +   ",
"      +@%*&%&===%%-*%%%===&%&===%%-*%%%-==&%&===%%-*%%%===&%&===%%-*%%%-==&%&==&%&*%@++   +   ",
"      +@%**&----=&%%===-===&----=&%%==%%-==&----=&%%==%%===&----=&%%==%%-==&----&**%@++   +   ",
"  +   @@%**&-----%---------&-----%-=---%---&-----%-----%%--&-----%-=---%---&----&**%@@   ++   ",
"  +   @@%%*&&--&%**--*&&&**&&--&%**--*&&&**&&--&%**--*&&%**&&--&%**--*&&&**&&--%%*%%@@   ++   ",
"      @@%%%%&&&==&**&&--&%%%&&&==&**&&--&%%%&&&==&**&&--&%%%&&&==&**&&--&%%%&&&%%%%%@@   ++   ",
"      @@%%*=-&--==&&&---%%==-&--==&&&---%%==-&--==&&&---%%==-&--==&&&---%%==-&&%=*%%@@    +   ",
"      @@%**---&---*&***&*-----&---*&***&*-----&---*&***&*-----&---*&***&*-----%--**%@@    +   ",
"      @@%%*--&&&-**&&%%%&**--&&&-**&&%%%&**--&&&-**&&%%%&**--&&&-**&&%%%&**--&&--*%%@@        ",
"      +@%%%%@@@@@@@@@@@@@@@@@@@@@@@@@@@@@@@@@@@@@@@@@@@@@@@@@@@@@@@@@@@@@@@@@@@@@%%%@@        ",
"      +@%@++    +++ +@++++++++   +++++++   @    +++ +@++++++++  +++ ++++@+++++++++@%@@        ",
"      @@%@+          @  +++                @         @  +++             @++      +@%@++       ",
"     +@@%@ .....#####$#######......#####...@....#####$#######...########$####.... @%@+++      ",
"    ++@@%@ $@@+++++++$+++++++++++++++++++++$+++++++++$++++++++++++++++++$+++++@@$ @%@@+       ",
"    ++@@%@.$@@++@@+++$++++++@+++++++@++++++$+++@+++++$+++@+++++@++++++++$@++++@@$ @%@@++      ",
"    ++@@%@.$@@++@@++@$++@@++@++++@@@@@@+@+@$+++@+@@@@$@@+@+++++@+@@@@@@@$@++++@@$ @%@@+++     ",
"++  @@@%@@.$@@@@@@@@@$@@@@@@@@@@@@@@@@@@@@@$@@@@@@@@@$@@@@@@@@@@@@@@@@@@$@@@@@@@$.@@%@@@++++  "};
