/* XPM */
static char * cata_door_xpm[] = {
"64 89 11 1",
" 	c #070707",
".	c #1B1916",
"+	c #2E2A25",
"@	c #3C3129",
"#	c #454135",
"$	c #312220",
"%	c #231F19",
"&	c #555145",
"*	c #1A1512",
"=	c #140E0E",
"-	c #23201D",
"             ......+++++++........++++@@@++++......             ",
"            .+++.+++++@@@@@@@@@@@@@@@@@@@@@@@@@@+++.            ",
"           .++++.+++++++++@@@@@@++++++++++++++++++++@           ",
"          ++++++.@+++++++++++++++++++++++++++++++++++@          ",
"         @++++++.@++++++++++++++++++++++++++++++++++++@         ",
"        @+++++++.@+++++++++++++++++++++++++++++++++++++.        ",
"       .++++++++.@+++++++@@@@++++++++++@@@@@@@@+++++++++.       ",
"      .+++++###@.@@@###########@@@@@@@@@#######@@###+++++.      ",
"     .@++++@$$$$.$$$$$$$$$$$$$$$$$$$$%%%%%%$$$$$$$$$@++++@.     ",
"    .@++++@$$$$$.$$$$$$$$$$$$$$$$$$$$$$%%%%%%$$$$$$$$@++++@.    ",
"   .@+++++.$$$$$.$$$$$$$$$$$$$$$$&&&&&&&&&&&&&&$$$$$$.+++++@.   ",
"  .@+++++$$.$$$$.$$$$$$$$$$$$$$$%#@@@@@@@@@@@@#%$$$$.$$+++++@.  ",
"  *@++++$$$$.$$%.$$$%$$$$$$%$$$$%#@@@@@@@@@@@@#%%$$.$$$$++++@*  ",
"  *#++#$$$$$$$%%.$%%%$$$$$$%$$$$%#@@@@@@@@@@@@@%%%$$$$$$$#++#*  ",
"  *#+#$$$$$$$$%*.$%%%%%%%%%%%%$$$%%%%%%%%%%%%%%$*%$$$$$$$$#+#*  ",
"  *##$$$$$$$$%******%%%%%%%%%%***%%%%%%%%%%%***%**%$$$$$$$$##*  ",
"  *%%$$$%%%%%*@%                                %@*%%%%%$$$%%*  ",
"  *%$$%$$$$$%*@%                                %@*%$$$$$%$$%*  ",
" @*$$$%$$$$$%*@%                                %@*%$$$$$%$$$*@ ",
"*@*%%%%%$$%%%*#%                                %#*%%%$$%%%%%*@*",
"*@*$$$$$$%$$%*#%                                %#*%$$%$$$$$$*@*",
"*@*%$$$$$$$$%*#%                                %#*%$$$$$$$$%*@*",
"*@*%%%$$$$$$%*#%                                %#*%$$$$$$%%%*@*",
"*##############%                                %##############*",
"*@@@@@@@@@@@@@@%                                %@@@@@@@@@@@@@@*",
"*%@@@@@@@@@@@@%%                                %%@@@@@@@@@@@@%*",
"*%%%%%%%%%%%%%%%          ==========            %%%%%%%%%%%%%%%*",
"==*************                     ==           *************==",
"==**%%%%%%%%**                                    **%%%%%%%%**==",
"==**$$$%%%%%%*      ===================           *%%%%%%$$$**==",
"==**$$$$$$$$%*            ================        *%$$$$$$$$**==",
"==**$$$$$$$$%*            ==============          *%$$$$$$$$**==",
"==*$$$$$$$$$$*                                    *$$$$$$$$$$*==",
"==*$$%&&&&%$$*                                    *$$%&&&&%$$*==",
"==**$%#@@#%$$*                ===========         *$$%#@@#%$**==",
"==*$$%#@@#%$$*           ================         *$$%#@@#%$$*==",
"==*$$%#@@#%$$%        ===================         %$$%#@@#%$$*==",
"==**%%#@@#%$$%       =========....========        %$$%#@@#%%**==",
"==**$%#@@#%%%%                                    %%%%#@@#%$**==",
"==**$%#@@#%$$%                                    %$$%#@@#%$**==",
"==**$%#@@#%$$%                                    %$$%#@@#%$**==",
"==*%$%#@@#%$$*                                    *$$%#@@#%$%*==",
"==*%$%#@@#%$%*      =======================       *%$%#@@#%$%*==",
"==*%$%#@@#%$%*     =========================      *%$%#@@#%$%*==",
"==*%$%#@@#%$%*     =========================      *%$%#@@#%$%*==",
"==*%$%#@@#%$%*     =======............======      *%$%#@@#%$%*==",
"==**$%#@@#%$**                                    **$%#@@#%$**==",
"==**$%#@@#%$$*                                    *$$%#@@#%$**==",
"==*$$%#@@#%$%*                                    *%$%#@@#%$$*==",
"==*$$%#@@#%$%*                                    *%$%#@@#%$$*==",
"==*$$%#@@#%$%*       ......................       *%$%#@@#%$$*==",
"==*%%%#@@#%$%*    ...........................     *%$%#@@#%%%*==",
"==*%%%#@@#%%%*    ...........................     *%%%#@@#%%%*==",
"==**$%#@@#%$%*    ........-----------........     *%$%#@@#%$**==",
"==*$$%#@@#%$*%    ======================          %*$%#@@#%$$*==",
"==**$%#@@#%$*%    ==========================      %*$%#@@#%$**==",
"==*$$%#@@#%$*%     =========================      %*$%#@@#%$$*==",
"==*$$%#@@#%$*%       =====================        %*$%#@@#%$$*==",
"==*$$%#@@#%$*%      ..........................    %*$%#@@#%$$*==",
"==*$$%#@@#%%**   ====..............-----.......   **%%#@@#%$$*==",
"==*$$%#@@@%%%*    ==.....---......--------.....   *%%%@@@#%$$*==",
"==**$%#@@@%%%*    =..----------------------....   *%%%@@@#%$**==",
"==**$%#@@@%$%*      ===========================   *%$%@@@#%$**==",
"==**$%#@@@%$%*   ===============================  *%$%@@@#%$**==",
"==*$$%#@@@%$$=   ==============================   =$$%@@@#%$$*==",
"==*$$%#@@@%$$=   ==============================   =$$%@@@#%$$*==",
"==**$%#@@#%$$=   ------------------------------   =$$%#@@#%$**==",
"==*$$%#@@#%$$=  -------------------------------   =$$%#@@#%$$*==",
"==*$$%#@@#%%%=  -------------------------------   =%%%#@@#%$$*==",
"==**$%#@@#%$$=  ---------++++++++++++-----------  =$$%#@@#%$**==",
"==**$%#@@#%$$=  ======...................=======  =$$%#@@#%$**==",
"==**$%#@@#%$$*   ====.......................====  *$$%#@@#%$**==",
"==**$%#@@#%$%*   ====........................===  *%$%#@@#%$**==",
"==*$$%#@@#%$%*      ===......................==   *%$%#@@#%$$*==",
"==*$$%#@@#%$%*   -----------------------+------   *%$%#@@#%$$*==",
"==*$$%@@@#%$%*  --------++++------+++++++++-----  *%$%#@@@%$$*==",
"==*$$%@@@#%$%*  ------++++++++++++++++++++++----  *%$%#@@@%$$*==",
"==*$$%@@@@%$$*  ------++++++++@@@@@@@@@++++++---  *$$%@@@@%$$*==",
"==**$$%%%%$%**  ................................  **%$%%%%$$**==",
"====********===.=..............................=====********====",
"--------------#.=.............................==.#--------------",
"@@@@+++@++@@@@#.===.........................====.#@@@@++@+++@@@@",
"@@@@@@@@@@@@@@#.==------------++----------------.#@@@@@@@@@@@@@@",
"####&&&&&&&&&&&.-------++++++++++++----+++++----.&&&&&&&&&&&####",
"+++++++++++++++.-----+++++++++++++++++++++++++--.+++++++++++++++",
"+++-+++++++++++.--++++++++++++++++++++++++++++++.+++++++++++-+++",
"+++-+-------+++.-+++++@@@@@@@@@@@@@@@@@@@@@@@@@+.+++-------+-+++",
"---------------..................................---------------",
"................................................................"};
