/* XPM */
static char *b2cdef487d4c4e08a83115610cc3faadjcfXvOaxQbDI34Bx[] = {
/* columns rows colors chars-per-pixel */
"64 64 65 1 ",
"  c #686555",
". c #67675C",
"X c #69675B",
"o c #6C695C",
"O c #7E735F",
"+ c #6E6E61",
"@ c #706F63",
"# c #737265",
"$ c #7D7563",
"% c #7C7B6D",
"& c #7E7D70",
"* c #837762",
"= c #857964",
"- c #837D6C",
"; c #85816F",
": c #8C826D",
"> c #868475",
", c #8A8674",
"< c #8E8876",
"1 c #878678",
"2 c #8E8A7A",
"3 c #918671",
"4 c #928874",
"5 c #928E7C",
"6 c #95907F",
"7 c #9B927E",
"8 c #938F80",
"9 c #959181",
"0 c #9A9584",
"q c #9D9886",
"w c #9E9A88",
"e c #A09682",
"r c #A19A86",
"t c #A49D8A",
"y c #A89F8C",
"u c #A7A08D",
"i c #A9A28E",
"p c #A7A190",
"a c #ADA592",
"s c #AFA894",
"d c #B0A792",
"f c #B0A995",
"g c #B3AB97",
"h c #B4AB97",
"j c #B4AC97",
"k c #B3AB98",
"l c #B3AC98",
"z c #B5AD99",
"x c #B7AD98",
"c c #B7AF9C",
"v c #B8AF9B",
"b c #B8AF9D",
"n c #B7B09E",
"m c #B8B09B",
"M c #B9B09B",
"N c #BBB29E",
"B c #BCB39E",
"V c #BDB49F",
"C c #BBB3A0",
"Z c #BCB3A0",
"A c #BFB6A1",
"S c #C1B7A2",
"D c #C2B7A5",
"F c #C2B8A3",
"G c #C2B8A4",
/* pixels */
"SSNNNNNBSGDDFFSSAAZAASSFFFSSAZBNNAANSSSSSFFSSSSSSFFSSDFSDDFSDDDD",
"BkuyyyyuaaaaaaaaaapuaaaaaaaaapuuyppuaaaaaaaaaaaaaaaaaaaaaaaaaacA",
"fzzzlzzzzcNNNNbcczzzzzzcNnzzzzzzzzzzzcccczzzzzzzzcccnNNCNczzcNNl",
"a00q95559990999999999699998899955555999999999999999990009959wrtf",
"zrtq%>>>>>1111111>>>>>>1>>>>>>>&&>>>>>>>>>>>>>>>>111111>>>>%ruyB",
"Maja0zMMMMNNNNNMMMMMMMMNMMMMMMzasfNMMNMMMMMMNMMNMNNNNNNNMMNqazfS",
"Majs0MMMMNNNNNNMMMMMMMMMMMMMMMzasfNMMMMMMMMMMMMMMMMMNNMMMMNqazaN",
"Mafs0MMMMNBAZNMMMMMMMMMMMMMMMMzaafNMMMMMMMMMMMMMMMMMMMMMMMNqazaN",
"Mahs0MMMNBASNNMMMMMMMMMMMMMMMMzaafNMMMMMMMMMMMMMMMMMMMMMMMMqazaN",
"Mahi:hMNNSSSNMMMMMMMMMMMMMMMMMzaafNMMMMMMMMMMMMNMMNMMMMMMMM4ezaN",
"Naji=fMNASSANNMMMMMMMMMMMMMMMMzaafNMMMMMMMMMMMNNNNMMMMMMMMv:7zaB",
"Nazi=fNNASSSABNMMMMMMNNNNMMMMMzaafNMMMMMMMMMvNNNNNMMMMMMMMv:7zaA",
"Nazi=fNNASSSSSANNNMMbNNNNNMMMMzaafMvMMMMMMMMMNNNNNvzMMMMMMv:7zaA",
"Nazu=fNNASSSSSSNNNMMbNNBNMMMMMzaafMzMMMMMMMMMMMMMNbcMMMMMMz:7zfS",
"Afzy$fNNSSSSSSSBNNNNNNBBNNMMMMziafMvMMMMMMMMMMMMMNNcNMMMMMM-7zfF",
"Sfza6zMNSSSSSSSBNNNMNNNNBNMMMMziafNMMMMMMMMMMMMMMNNnMNMMMMM9izlS",
"SflfqMNNSSSSSSSBNNMMMNNNNMMMMNzaafNMMMMMMMMMMMMMMNNNMNNMMMMqavlS",
"SfzfqNMNASDDSSSBNNNNNMMMNMMMMMzaafMMMMMMMMMMMMMMMNNNMNNMMMNqazhS",
"AszfqMMNSSDDSSSSAABBNNbNbMMMMMzaafNMMMMMMMMMMMMvMNMMMNNMMMNqazfS",
"AfzfqMMBSDDDSSSSSSANNNvbvvMMMMzaafNMMMMMMMMMMMMMMNMMMNNnMMNqazfS",
"SfzsqMMNSSSSSSSSSSANNMNNMMMMMMzaafMMMNMMMMNNMNzMMvzznNNMMMMwazfS",
"VfzsqMMNASSSSSSSSSANNMMbNMMMMMzaafMMMMMMMMNNNNzzMMNMnNNMMMMqazfS",
"BazsqNMNBASSSSSSSANNNNNNNMMMMMzaafNMMMMMMMNNNNvvMNNMNnNMMMNqazfA",
"Bazs0MMMNNNASSSAVBNBBNMbNNMMMMzaafNNMMMMMMMNNNvvNNNNNMvMMMNqazaZ",
"Najs0MMMMMNASSSBNNBBNBBNNNzMMMzaaa75tNMMNNvbNNNNBAANNMMMMMMqazsN",
"NafsqMMMMMNASABNNBANNZSBNMMMMMzaai$ 0NMNNNNvMNNNSSSANNMMMMMwafaN",
"MajsqMMMMMNAVNNNNVNMNASANMMzMMzaafarzMNMNNvvMNNASSSSANNNNMNwazaN",
"Nazs0MMMMzzvvMNNNNNvNAVNNMNMMMzaafNNMMMMNNMMvNZSSSSSAAAANNNwazaN",
"Najs0MMMMzfhzMMNNNBMBANNNMvvvMjiafBNNNNNNNMMMBZAASSSSSSSNMNwazaN",
"Mazs0MMMMzfhvMMNNNNNVANNMMzzzvhiade7adaddzvvvNNBBASSASSANNNwazsN",
"Naza3jMMMjfhjzMMMNNNAANNMMMMvMhuii=o-,,,<fvvMNNNNNAASSSANNN5rzfA",
"Nazu=fMMzhffjzMMMNNNAZANMNMMMMftiat7fzzzzMvvMNBNZAANASSABNN:7zfS",
"Bazy=dvvzhffzzMMNNNNNNNNMNMMMzdriavMMMMMNMMMMNNBZAANASSAANN37NfS",
"Afzu=fMMvffhvMNNNAANNNNMMMMMvjdtiizvzvMNNNNMMMNNCAAASSSSSAA30NfS",
"Sszu=fMMvjfzMMNNNAVNNnNMNMMMvzdtyizzvvMNMNMMMMNNNVAASSSSAAS37NfS",
"Sfzy*fMMvjhMMNNNNAAANNNNNNMMMzdtyihjvMMMvMNMNNNNNNAASSAAASA:7NfS",
"Sffa<zMMvjhvMMNNNAAABAAAANvvvvftiihhzvMMzMMMMNNZBNBASAAAASA9iNfS",
"Safa0vvMMjfjvMMMNAAAAASAAANMMMfiiijfzvvNNMMMNNNBNNNAAAAASAVtzNfS",
"Vafa0zjvMjhzMMMMMNBAAVSSSSVNNMfyiihfzvvMNvzMNNNNNNNANABASVNwfNfS",
"vtai9hhMMjfvMMMzvNNVASSSSSSSAMftiihfvMzvvjhzMNBNNNAAVVVNNNMwszfS",
"Midi6hhvMjhvvvzjvNNASSSSSSSSAMdtiiffzvzzjhfhvMBNNVAANABMMMMwaNzS",
"Bafa0hhvMjhvvvjhzNNNAAASSSAABvdttihfhjvvhfhhhvNMNVANBANMMMMqaNlS",
"Aafa0hhvvhhjjzjhzMBAAAAASSSAVvaryihhzvMMzhhhhzMMMBVNAVMMMMMqaNlS",
"Nafa9hhvzfhzvzjhjMNNBAAASSSSBzdtyihhMMMMMjhfjzzMvMMNANMMMMMqsNzS",
"Bafa9ffjvhhvNvhzMNNNVSAAFFFSNzdttihhNNMvMjhhjzjvMNNNANNNMMM0aNlF",
"Nafa9hfhfaafkfdffzzzzzzcNNNNNjdttifhzzfffdaaaaaaffffffffMvz0azfS",
"Niai9fff<<5595555000qq00www0Njdtyiff50000995555660000995zMj0azfS",
"Niai9fhf5rrrtytttuaaaaaaaaaqNvfyiihf9yuuuuytrrtttuiiuuy9zMf9azfS",
"Niai6fhf<qrrrrtrqtuiiauuiai0MMjiaihf5ttttttrqqrtttuuttt5hzd6ajfS",
"Nidi9fhf5ruuyyuuyuuaasaaasa0MNjiaajh9uuuuiutttuuuuiiuuu9fhf0ajfS",
"Muai<dhf<0rqqqrrrrwtuiiaiut9zMziadMh5rtttttrrqttttttttr5fhh5yzfS",
"vtar*ahf5qttrtyyyuuuaaiaaiu0zMziadvz9iiiiiuuttuiuuiiiut6fhh:7zfA",
"Mtar*dhd,000qqqqqrrttttyttt6zMjiaavz6tttttttrttttttttrq2fvv:7zfS",
"zrir*ifd<qrrtutytyuuiiiiiii0vvhyaaMz0uiiuuuuuiiiiuiiuut6hMv:7zfS",
"zrar*iha,600qqq00rttrtttttt6zvdtadMj5tttrrrrrtttttttttr5zMv:7zfS",
"ztarOihf<qrrttrrrtuiuiuiiii0zvdtiaNz0uiiiiuyuuuuuuiiiiu9zMM:7zfS",
"vtar%ahf,70000000qrttrttttt5jjdtiaNz6tttutrrrtrrrrrttrr5zNM<qzfS",
"Miau5fhf<556666090qqqqqwwqq9zjatisNv0wwrtwqqqqqqq0qqqqq9vMMqazfS",
"viau5ffhaaaaaaafafflzfzzzzjfvhatiaMvfzzNzzffzzkkffzzzzzzMzv0afaS",
"juau5dffhhfhhjhjjvMMNNNVVNMvhdiqtihhjMBSANNNNNNNNNNNNVNMvjv0afaA",
"zyau5ffhhffhhzjjjMMMNNNNNNvhfdiqtiffhzNAANNNNNVSVNNNAVNMMvMqafaS",
"Miai,rrrrqqrtttttyuuuuuuuuutrr0560rrrtiaaaaaaaaaaauaaaiuutt2afaS",
"Miat#;;;;;>,,,>>>,,,,<<,<<<,>>;---;;,<<55555<555555555<<<<,%afaS",
"Mtat.ooooooooooooo++++@@#@#+oooXXXXo+##################@@@++afaS"
};
